<?xml version="1.0" standalone="no"?>
<!DOCTYPE svg PUBLIC "-//W3C//DTD SVG 20010904//EN"
 "http://www.w3.org/TR/2001/REC-SVG-20010904/DTD/svg10.dtd">
<svg version="1.0" xmlns="http://www.w3.org/2000/svg"
 width="300.000000pt" height="172.000000pt" viewBox="0 0 300.000000 172.000000"
 preserveAspectRatio="xMidYMid meet">
<metadata>
Created by potrace 1.10, written by Peter Selinger 2001-2011
</metadata>
<g transform="translate(0.000000,172.000000) scale(0.100000,-0.100000)"
fill="#000000" stroke="none">
<path d="M1180 1645 c-237 -29 -456 -89 -637 -175 -147 -70 -237 -131 -334
-229 -143 -144 -204 -300 -179 -458 47 -296 382 -558 863 -673 176 -42 308
-59 507 -66 779 -27 1443 266 1565 690 28 97 17 215 -28 311 -63 133 -165 241
-317 337 -183 116 -432 203 -715 249 -171 28 -554 35 -725 14z m645 -25 c429
-57 769 -201 968 -409 443 -463 -42 -1014 -998 -1132 -129 -16 -482 -16 -610
0 -489 61 -876 246 -1045 497 -306 459 193 949 1070 1049 139 16 479 13 615
-5z"/>
<path d="M1720 1340 c0 -16 5 -30 10 -30 6 0 10 14 10 30 0 17 -4 30 -10 30
-5 0 -10 -13 -10 -30z"/>
<path d="M1620 1244 c-73 -20 -126 -52 -182 -112 -87 -92 -127 -218 -108 -335
28 -174 177 -325 329 -334 l56 -3 -57 15 c-165 42 -273 147 -304 295 -20 95
-12 166 27 247 16 34 50 83 74 108 50 51 145 101 212 111 24 3 43 10 43 15 0
12 -25 10 -90 -7z"/>
<path d="M1821 1237 c16 -13 138 -64 133 -56 -8 13 -103 59 -123 59 -8 0 -12
-2 -10 -3z"/>
<path d="M1750 1055 l0 -175 170 0 170 0 0 39 c0 22 -5 43 -10 46 -7 4 -8 -8
-4 -34 8 -48 -10 -57 -27 -13 -45 113 -74 154 -146 203 -26 17 -67 39 -92 49
-50 19 -65 40 -29 40 18 0 20 2 8 10 -38 24 -40 16 -40 -165z m164 3 c50 -54
56 -58 41 -28 -18 35 -18 35 2 17 11 -10 29 -37 39 -60 10 -23 21 -44 24 -47
3 -3 -2 -13 -12 -22 -17 -17 -18 -16 -24 8 -6 24 -7 24 -20 5 -12 -17 -24 -19
-86 -16 -40 2 -75 4 -78 5 -3 1 -7 2 -10 2 -3 0 -5 33 -5 74 0 43 4 74 10 74
5 0 4 4 -4 9 -8 5 -11 16 -6 31 12 39 61 20 129 -52z"/>
<path d="M1680 1210 c-14 -5 -36 -11 -50 -14 -14 -3 -34 -12 -45 -21 -18 -13
-16 -13 19 1 21 8 48 14 60 12 14 -3 3 -9 -34 -20 -74 -23 -154 -74 -146 -94
3 -8 1 -12 -4 -9 -5 3 -20 -11 -33 -32 -40 -65 -58 -122 -57 -187 1 -86 2 -96
12 -96 4 0 8 -6 8 -14 0 -19 40 -67 50 -61 5 3 12 0 16 -6 4 -8 3 -9 -4 -5 -7
4 -12 3 -12 -2 0 -4 17 -16 37 -26 29 -14 34 -20 22 -27 -12 -8 -12 -10 1 -8
25 4 160 -24 160 -33 0 -12 -48 -10 -71 3 -11 6 -25 8 -32 6 -18 -7 52 -35 96
-38 l39 -4 -2 340 c0 186 -2 340 -3 341 -1 1 -13 -2 -27 -6z m-9 -79 c0 -3 2
-120 4 -258 4 -240 3 -253 -15 -263 -23 -13 -50 -3 -74 27 -17 23 -19 23 -31
6 -13 -17 -15 -17 -34 4 -11 12 -29 27 -39 35 -25 17 -75 134 -68 156 3 9 2
23 -3 31 -11 16 -3 43 10 36 4 -3 6 -12 3 -19 -3 -8 -1 -16 4 -20 5 -3 8 11 7
31 -1 40 36 128 66 156 11 10 17 22 14 28 -4 5 3 9 14 9 12 0 21 4 21 9 0 12
91 50 107 44 7 -3 13 -8 14 -12z"/>
<path d="M1945 1150 c3 -5 19 -19 35 -30 21 -15 28 -17 24 -6 -3 8 -16 22 -29
30 -28 18 -39 20 -30 6z"/>
<path d="M2028 1104 c-4 -3 9 -31 28 -62 20 -30 40 -65 44 -76 5 -13 9 -15 9
-6 1 17 -40 106 -61 133 -7 10 -17 15 -20 11z"/>
<path d="M230 840 c0 -196 2 -220 16 -220 15 0 16 21 12 207 -2 113 -2 200 1
192 2 -8 23 -86 46 -174 59 -228 62 -227 134 59 16 65 31 120 33 121 2 2 1
-89 0 -201 -3 -181 -2 -204 12 -204 14 0 16 26 16 220 l0 220 -25 0 c-20 0
-26 -7 -35 -42 -7 -24 -22 -81 -35 -128 -12 -47 -27 -103 -32 -125 l-10 -40
-7 35 c-4 19 -24 95 -43 168 -33 122 -38 132 -60 132 l-23 0 0 -220z"/>
<path d="M610 840 c0 -189 2 -220 15 -220 13 0 15 31 15 220 0 189 -2 220 -15
220 -13 0 -15 -31 -15 -220z"/>
<path d="M780 960 c27 -55 50 -104 50 -110 0 -5 -24 -59 -54 -120 -45 -91 -51
-110 -36 -110 12 0 29 26 59 89 22 49 41 94 41 100 0 6 5 11 10 11 6 0 10 -6
10 -12 0 -7 19 -52 42 -100 27 -58 47 -88 58 -88 13 0 5 23 -37 111 -29 60
-53 114 -53 120 0 5 23 54 50 109 42 83 47 100 33 100 -13 0 -30 -26 -58 -90
-22 -49 -42 -90 -45 -90 -3 0 -23 40 -45 90 -28 63 -45 90 -58 90 -14 0 -9
-17 33 -100z"/>
<path d="M1060 871 c0 -186 1 -191 24 -218 21 -24 32 -28 95 -31 60 -4 71 -2
71 12 0 13 -11 16 -60 16 -98 0 -100 5 -100 210 l0 170 80 0 c64 0 80 3 80 15
0 12 -17 15 -95 15 l-95 0 0 -189z"/>
<path d="M2243 840 c-50 -184 -57 -220 -44 -220 12 0 26 38 59 160 24 88 47
181 51 207 6 40 9 44 14 23 18 -77 48 -198 53 -217 6 -22 4 -23 -56 -23 -85 0
-77 -23 10 -30 l64 -5 14 -57 c10 -43 19 -58 31 -58 16 0 14 12 -14 113 -18
61 -45 160 -61 220 -42 159 -48 153 -121 -113z"/>
<path d="M2583 1050 c-42 -17 -53 -58 -53 -203 0 -151 10 -191 51 -212 39 -20
129 -20 129 0 0 11 -12 15 -49 15 -33 0 -56 6 -72 19 -23 18 -24 26 -27 163
-3 134 -2 145 18 171 19 24 28 27 86 27 50 0 64 3 64 15 0 12 -13 15 -62 14
-35 0 -73 -4 -85 -9z"/>
<path d="M1105 850 c-12 -20 7 -30 61 -30 47 0 54 2 54 20 0 18 -7 20 -54 20
-30 0 -58 -4 -61 -10z"/>
<path d="M2640 853 c1 -24 20 -36 49 -30 l31 7 0 -105 c0 -87 3 -105 15 -105
13 0 15 20 15 120 l0 120 -55 0 c-30 0 -55 -3 -55 -7z"/>
<path d="M1750 691 l0 -159 35 8 c61 14 144 62 185 106 41 45 74 109 66 130
-3 7 -1 14 3 16 4 2 11 15 15 31 l6 27 -155 0 -155 0 0 -159z m257 127 c12
-15 10 -31 -8 -73 -7 -16 -11 -36 -10 -44 2 -9 -3 -12 -13 -8 -9 4 -17 -1 -21
-14 -4 -10 -14 -19 -22 -19 -9 0 -14 -3 -10 -6 7 -8 -17 -34 -32 -34 -5 0 -17
-7 -25 -16 -18 -18 -50 -26 -73 -17 -13 5 -12 9 8 24 19 14 20 19 8 19 -22 0
-26 13 -27 95 -1 69 10 110 26 90 9 -13 42 -16 42 -4 0 13 94 11 108 -3 9 -9
13 -7 18 5 7 20 18 22 31 5z"/>
<path d="M2105 803 c-24 -129 -99 -233 -206 -287 -40 -20 -90 -39 -111 -42
-21 -4 -38 -10 -38 -14 0 -4 24 -3 52 2 159 29 293 169 314 326 8 59 0 71 -11
15z"/>
</g>
</svg>
